<svg xmlns="http://www.w3.org/2000/svg" xmlns:xlink="http://www.w3.org/1999/xlink" width="86" height="85" viewBox="0 0 86 85">
  <defs>
    <clipPath id="clip-path">
      <rect id="사각형_1981" data-name="사각형 1981" width="86" height="85" transform="translate(587.738 3440.961)" fill="#fcc0cc"/>
    </clipPath>
  </defs>
  <g id="마스크_그룹_13" data-name="마스크 그룹 13" transform="translate(-587.738 -3440.961)" clip-path="url(#clip-path)">
    <g id="그룹_1266" data-name="그룹 1266" transform="translate(595.275 3448.216)">
      <g id="그룹_1255" data-name="그룹 1255" transform="translate(0 5.59)">
        <g id="그룹_1254" data-name="그룹 1254" transform="translate(0 0)">
          <path id="패스_3484" data-name="패스 3484" d="M226.818,235.28l-8.691.013a.739.739,0,0,1-.741-.739h0a.74.74,0,0,1,.739-.741l8.692-.013a.74.74,0,0,1,.741.739h0A.741.741,0,0,1,226.818,235.28Z" transform="translate(-158.632 -205.362)" fill="#404fc3"/>
          <path id="패스_3485" data-name="패스 3485" d="M101.17,291.023l-6.909.013a.74.74,0,0,1-.741-.739h0a.74.74,0,0,1,.739-.741l6.909-.013a.74.74,0,0,1,.741.739h0A.74.74,0,0,1,101.17,291.023Z" transform="translate(-89.952 -236.27)" fill="#ffda0d"/>
          <rect id="사각형_1976" data-name="사각형 1976" width="2.07" height="2.005" rx="1.002" transform="translate(64.646 0.003) rotate(-0.079)" fill="#1ee8be"/>
          <rect id="사각형_1977" data-name="사각형 1977" width="2.07" height="2.005" rx="1.002" transform="translate(0 11.211) rotate(-0.079)" fill="#d26e7b"/>
        </g>
      </g>
      <g id="그룹_1265" data-name="그룹 1265" transform="translate(10.073 0)">
        <g id="그룹_1264" data-name="그룹 1264">
          <g id="그룹_1263" data-name="그룹 1263">
            <g id="그룹_1262" data-name="그룹 1262">
              <g id="그룹_1261" data-name="그룹 1261">
                <path id="패스_3486" data-name="패스 3486" d="M138.5,168.074l-2.152-2.739a2.391,2.391,0,0,0-3.33-.424h0a2.391,2.391,0,0,0-.674,3l2.969,5.746Z" transform="translate(-121.406 -161.304)" fill="#ecb0a9"/>
                <path id="패스_3487" data-name="패스 3487" d="M162.491,256.527l9.09,26.208-18.742,7.241-7.233-21.329Z" transform="translate(-128.906 -212.374)" fill="#ecb0a9"/>
                <g id="그룹_1260" data-name="그룹 1260">
                  <path id="패스_3488" data-name="패스 3488" d="M129.118,217.185,111.3,210.6a4.866,4.866,0,0,1-2.878-6.252L124.619,160.6a4.867,4.867,0,0,1,6.252-2.878l17.816,6.585a4.866,4.866,0,0,1,2.878,6.252L135.37,214.308A4.867,4.867,0,0,1,129.118,217.185Z" transform="translate(-108.121 -157.424)" fill="#120e3f"/>
                  <rect id="사각형_1978" data-name="사각형 1978" width="24.513" height="37.33" transform="matrix(0.938, 0.347, -0.347, 0.938, 17.159, 7.432)" fill="#fff"/>
                  <path id="패스_3489" data-name="패스 3489" d="M166.791,170.618a.294.294,0,0,0-.2.552l8.135,3.007a.3.3,0,0,0,.225-.009.293.293,0,0,0-.021-.542l-8.134-3.007Z" transform="translate(-140.434 -164.73)" fill="#fff"/>
                  <path id="패스_3490" data-name="패스 3490" d="M136.828,268.422l-.048-.017a2.246,2.246,0,0,0-2.842,1.421,2.246,2.246,0,1,0,4.262,1.421h0a2.245,2.245,0,0,0-1.373-2.825Z" transform="translate(-122.373 -218.895)" fill="#fff"/>
                  <g id="그룹_1259" data-name="그룹 1259" transform="translate(8.195 15.22)">
                    <g id="그룹_1256" data-name="그룹 1256" transform="translate(0 15.673)">
                      <rect id="사각형_1979" data-name="사각형 1979" width="20.898" height="6.096" rx="1.968" transform="translate(2.132 0) rotate(20.475)" fill="#404fc3"/>
                      <text id="ChoiceStock" transform="translate(4.082 3.216) rotate(20.475)" fill="#fff" font-size="1" font-family="Lato-Regular, Lato"><tspan x="0" y="0">ChoiceStock</tspan></text>
                    </g>
                    <g id="그룹_1258" data-name="그룹 1258" transform="translate(2.98 0)">
                      <path id="사각형_1980" data-name="사각형 1980" d="M2.57,0H18.328A2.57,2.57,0,0,1,20.9,2.57v9.169a2.569,2.569,0,0,1-2.569,2.569H2.569A2.569,2.569,0,0,1,0,11.739V2.57A2.57,2.57,0,0,1,2.57,0Z" transform="translate(5.005 0) rotate(20.475)" fill="#f6f0e7"/>
                      <g id="그룹_1257" data-name="그룹 1257" transform="translate(7.706 5.284)">
                        <path id="패스_3491" data-name="패스 3491" d="M159.661,209.831a4.73,4.73,0,1,1-2.777-6.085A4.729,4.729,0,0,1,159.661,209.831Z" transform="translate(-150.499 -203.445)" fill="#404fc3"/>
                        <path id="패스_3492" data-name="패스 3492" d="M156.507,212.909l1.206,1.831,2.909-1.769" transform="translate(-153.831 -208.693)" fill="#404fc3" stroke="#fff" stroke-linecap="round" stroke-linejoin="round" stroke-width="1.831"/>
                      </g>
                    </g>
                  </g>
                </g>
                <path id="패스_3493" data-name="패스 3493" d="M181.284,233.052l3.893-7.792a23.3,23.3,0,0,0,2.108-6.4l2.39-18.239a.7.7,0,0,0-.73-.821c-1.726.086-5.628,1.857-5.971,8.852l-2.344,6.357s-9.835,9.387-4.568,20.111Z" transform="translate(-144.932 -180.921)" fill="#ecb0a9"/>
                <path id="패스_3494" data-name="패스 3494" d="M133.994,192.343l-2.221-1.316s-1.1-.562-2.322,1.152.454,4.109.454,4.109l.253-.707,1.005.758a2.45,2.45,0,0,0,3.3-.315h0A2.45,2.45,0,0,0,133.994,192.343Z" transform="translate(-119.7 -176.007)" fill="#ecb0a9"/>
                <path id="패스_3495" data-name="패스 3495" d="M128.462,210.651l-3.239-2.107s-1.1-.562-2.322,1.152.453,4.109.453,4.109l.253-.707,2.023,1.55a2.45,2.45,0,0,0,3.3-.315h0A2.45,2.45,0,0,0,128.462,210.651Z" transform="translate(-116.068 -185.72)" fill="#ecb0a9"/>
                <path id="패스_3496" data-name="패스 3496" d="M120.537,227.127l-3.48-1.245s-1.336-.284-1.817,1.6c0,0-.594,1.225,1.349,3.4l.394-1.1,2.309.826a1.847,1.847,0,0,0,2.38-1.171h0A1.848,1.848,0,0,0,120.537,227.127Z" transform="translate(-112.021 -195.374)" fill="#ecb0a9"/>
              </g>
              <path id="패스_3497" data-name="패스 3497" d="M177.592,309.244l-6.237-17.74a1.779,1.779,0,0,0-2.236-1.1l-20.775,6.837a1.78,1.78,0,0,0-1.136,2.242l3.025,9.762Z" transform="translate(-129.746 -231.107)" fill="#d26e7b"/>
            </g>
          </g>
        </g>
      </g>
    </g>
  </g>
</svg>
