<svg xmlns="http://www.w3.org/2000/svg" width="23.25" height="25.833" viewBox="0 0 23.25 25.833">
  <path id="file_chart_line" data-name="file chart line" d="M10.333,6.458h2.583V19.375H10.333ZM15.5,11.625h2.583v7.75H15.5ZM5.167,14.208H7.75v5.167H5.167ZM15.5,2.583H2.583V23.25H20.667V7.75H15.5ZM0,1.292A1.247,1.247,0,0,1,.375.375,1.247,1.247,0,0,1,1.292,0h15.5L23.25,6.458V24.542a1.26,1.26,0,0,1-.375.9,1.226,1.226,0,0,1-.917.387H1.292a1.247,1.247,0,0,1-.917-.375A1.247,1.247,0,0,1,0,24.542Z" fill="#fff"/>
</svg>
