<svg xmlns="http://www.w3.org/2000/svg" xmlns:xlink="http://www.w3.org/1999/xlink" width="172.655" height="111.497" viewBox="0 0 172.655 111.497">
  <defs>
    <clipPath id="clip-path">
      <rect id="사각형_7081" data-name="사각형 7081" width="172.655" height="111.497" fill="none"/>
    </clipPath>
    <clipPath id="clip-path-2">
      <path id="패스_17716" data-name="패스 17716" d="M48.9,102.144c-4.516,2.607-4.54,6.836-.053,9.442s11.785,2.607,16.3,0,4.539-6.835.053-9.442a16.566,16.566,0,0,0-8.141-1.956,16.68,16.68,0,0,0-8.161,1.956" transform="translate(-45.494 -100.188)"/>
    </clipPath>
    <clipPath id="clip-path-3">
      <path id="패스_17717" data-name="패스 17717" d="M67.312,111.3c-4.516,2.607-4.54,6.835-.053,9.443s11.785,2.607,16.3,0,4.539-6.836.054-9.443a17.973,17.973,0,0,0-16.3,0" transform="translate(-63.909 -109.345)"/>
    </clipPath>
    <clipPath id="clip-path-4">
      <path id="패스_17718" data-name="패스 17718" d="M30.615,91.784c-4.516,2.608-4.537,6.835-.053,9.443s11.787,2.607,16.3,0,4.54-6.835.053-9.443a16.555,16.555,0,0,0-8.14-1.955,16.687,16.687,0,0,0-8.162,1.955" transform="translate(-27.213 -89.829)"/>
    </clipPath>
    <clipPath id="clip-path-5">
      <rect id="사각형_7025" data-name="사각형 7025" width="188.356" height="142.111" fill="none"/>
    </clipPath>
    <clipPath id="clip-path-6">
      <path id="패스_17720" data-name="패스 17720" d="M67.012,108.425c-4.218,2.435-4.24,6.382-.052,8.817a16.781,16.781,0,0,0,15.222,0c4.217-2.435,4.239-6.382.049-8.817a16.778,16.778,0,0,0-15.22,0" transform="translate(-63.834 -106.6)" fill="none"/>
    </clipPath>
    <linearGradient id="linear-gradient" x1="-2.68" y1="0.934" x2="-2.637" y2="0.934" gradientUnits="objectBoundingBox">
      <stop offset="0" stop-color="#fccd55"/>
      <stop offset="0.557" stop-color="#fedd55"/>
      <stop offset="1" stop-color="#ffe555"/>
    </linearGradient>
    <clipPath id="clip-path-7">
      <path id="패스_17721" data-name="패스 17721" d="M68.632,109.367c-3.069,1.774-3.085,4.648-.035,6.42a12.218,12.218,0,0,0,11.08,0c3.069-1.772,3.086-4.645.035-6.42a12.218,12.218,0,0,0-11.08,0" transform="translate(-66.32 -108.039)" fill="none"/>
    </clipPath>
    <linearGradient id="linear-gradient-2" x1="-3.869" y1="1.101" x2="-3.809" y2="1.101" gradientUnits="objectBoundingBox">
      <stop offset="0" stop-color="#e88e46"/>
      <stop offset="0.218" stop-color="#eea84a"/>
      <stop offset="0.545" stop-color="#f7c950"/>
      <stop offset="0.818" stop-color="#fddd53"/>
      <stop offset="1" stop-color="#ffe555"/>
    </linearGradient>
    <clipPath id="clip-path-9">
      <path id="패스_17723" data-name="패스 17723" d="M68.446,109.62a5.454,5.454,0,0,0-1.717,1.479.723.723,0,0,0-.092.157c-.781,1.543-.139,3.27,1.956,4.483a12.223,12.223,0,0,0,11.086,0,5.51,5.51,0,0,0,1.681-1.425c.956-1.59.35-3.425-1.837-4.693a12.2,12.2,0,0,0-11.078,0" transform="translate(-66.317 -108.291)" fill="none"/>
    </clipPath>
    <linearGradient id="linear-gradient-3" x1="-4.051" y1="1.116" x2="-3.989" y2="1.116" gradientUnits="objectBoundingBox">
      <stop offset="0" stop-color="#fbb951"/>
      <stop offset="0.02" stop-color="#fbb951"/>
      <stop offset="0.286" stop-color="#fcc952"/>
      <stop offset="0.714" stop-color="#fedd54"/>
      <stop offset="1" stop-color="#ffe555"/>
    </linearGradient>
    <clipPath id="clip-path-11">
      <path id="패스_17725" data-name="패스 17725" d="M30.39,87.48c-4.217,2.434-4.238,6.382-.049,8.816a16.778,16.778,0,0,0,15.221,0c4.217-2.434,4.239-6.382.049-8.816a15.453,15.453,0,0,0-7.6-1.826A15.576,15.576,0,0,0,30.39,87.48" transform="translate(-27.213 -85.654)" fill="none"/>
    </clipPath>
    <linearGradient id="linear-gradient-4" x1="-1.084" y1="1.999" x2="-1.041" y2="1.999" xlink:href="#linear-gradient"/>
    <clipPath id="clip-path-12">
      <path id="패스_17726" data-name="패스 17726" d="M32.013,88.423c-3.07,1.771-3.086,4.646-.037,6.418a12.21,12.21,0,0,0,11.081,0c3.069-1.773,3.085-4.648.035-6.42a11.248,11.248,0,0,0-5.533-1.329,11.329,11.329,0,0,0-5.547,1.329" transform="translate(-29.7 -87.094)" fill="none"/>
    </clipPath>
    <linearGradient id="linear-gradient-5" x1="-1.676" y1="2.564" x2="-1.616" y2="2.564" xlink:href="#linear-gradient-2"/>
    <clipPath id="clip-path-14">
      <path id="패스_17728" data-name="패스 17728" d="M31.826,88.677a5.44,5.44,0,0,0-1.718,1.477.783.783,0,0,0-.092.157c-.781,1.545-.139,3.271,1.957,4.483a12.216,12.216,0,0,0,11.086,0,5.538,5.538,0,0,0,1.681-1.424c.956-1.588.349-3.425-1.838-4.692a11.244,11.244,0,0,0-5.532-1.331,11.32,11.32,0,0,0-5.545,1.331" transform="translate(-29.696 -87.346)" fill="none"/>
    </clipPath>
    <linearGradient id="linear-gradient-6" x1="-1.765" y1="2.637" x2="-1.703" y2="2.637" xlink:href="#linear-gradient-3"/>
    <clipPath id="clip-path-16">
      <path id="패스_17731" data-name="패스 17731" d="M30.39,85.159c-4.217,2.435-4.238,6.383-.049,8.818a16.778,16.778,0,0,0,15.221,0c4.217-2.435,4.239-6.383.049-8.818a15.465,15.465,0,0,0-7.6-1.824,15.588,15.588,0,0,0-7.622,1.824" transform="translate(-27.213 -83.335)" fill="none"/>
    </clipPath>
    <linearGradient id="linear-gradient-7" x1="-1.084" y1="2.117" x2="-1.041" y2="2.117" xlink:href="#linear-gradient"/>
    <clipPath id="clip-path-17">
      <path id="패스_17732" data-name="패스 17732" d="M32.013,86.1c-3.07,1.772-3.086,4.646-.037,6.418a12.221,12.221,0,0,0,11.081,0c3.069-1.772,3.085-4.646.035-6.418a11.248,11.248,0,0,0-5.533-1.329A11.329,11.329,0,0,0,32.013,86.1" transform="translate(-29.7 -84.775)" fill="none"/>
    </clipPath>
    <linearGradient id="linear-gradient-8" x1="-1.676" y1="2.726" x2="-1.616" y2="2.726" xlink:href="#linear-gradient-2"/>
    <clipPath id="clip-path-19">
      <path id="패스_17734" data-name="패스 17734" d="M31.826,86.355a5.475,5.475,0,0,0-1.718,1.479.752.752,0,0,0-.092.157c-.781,1.542-.139,3.27,1.957,4.481a12.216,12.216,0,0,0,11.086,0,5.489,5.489,0,0,0,1.681-1.424c.956-1.59.349-3.426-1.838-4.693a11.256,11.256,0,0,0-5.532-1.328,11.332,11.332,0,0,0-5.545,1.328" transform="translate(-29.696 -85.027)" fill="none"/>
    </clipPath>
    <linearGradient id="linear-gradient-9" x1="-1.765" y1="2.805" x2="-1.703" y2="2.805" xlink:href="#linear-gradient-3"/>
    <clipPath id="clip-path-21">
      <path id="패스_17737" data-name="패스 17737" d="M30.39,82.84c-4.217,2.435-4.238,6.383-.049,8.817a16.771,16.771,0,0,0,15.221,0c4.217-2.434,4.239-6.382.049-8.817a15.466,15.466,0,0,0-7.6-1.825A15.588,15.588,0,0,0,30.39,82.84" transform="translate(-27.213 -81.015)" fill="none"/>
    </clipPath>
    <linearGradient id="linear-gradient-10" x1="-1.084" y1="2.235" x2="-1.041" y2="2.235" xlink:href="#linear-gradient"/>
    <clipPath id="clip-path-22">
      <path id="패스_17738" data-name="패스 17738" d="M32.013,83.785c-3.07,1.771-3.086,4.645-.037,6.417a12.213,12.213,0,0,0,11.081,0c3.069-1.772,3.085-4.646.035-6.417a11.248,11.248,0,0,0-5.533-1.329,11.329,11.329,0,0,0-5.547,1.329" transform="translate(-29.7 -82.456)" fill="none"/>
    </clipPath>
    <linearGradient id="linear-gradient-11" x1="-1.676" y1="2.889" x2="-1.616" y2="2.889" xlink:href="#linear-gradient-2"/>
    <clipPath id="clip-path-24">
      <path id="패스_17740" data-name="패스 17740" d="M31.826,84.036a5.445,5.445,0,0,0-1.718,1.479.7.7,0,0,0-.092.157c-.781,1.543-.139,3.27,1.957,4.481a12.216,12.216,0,0,0,11.086,0,5.506,5.506,0,0,0,1.681-1.424c.956-1.59.349-3.425-1.838-4.693a11.244,11.244,0,0,0-5.532-1.329,11.32,11.32,0,0,0-5.545,1.329" transform="translate(-29.696 -82.707)" fill="none"/>
    </clipPath>
    <linearGradient id="linear-gradient-12" x1="-1.765" y1="2.973" x2="-1.703" y2="2.973" xlink:href="#linear-gradient-3"/>
    <clipPath id="clip-path-26">
      <path id="패스_17743" data-name="패스 17743" d="M30.39,80.522c-4.217,2.433-4.238,6.382-.049,8.816a16.778,16.778,0,0,0,15.221,0c4.217-2.434,4.239-6.383.049-8.816a15.453,15.453,0,0,0-7.6-1.826,15.576,15.576,0,0,0-7.622,1.826" transform="translate(-27.213 -78.696)" fill="none"/>
    </clipPath>
    <linearGradient id="linear-gradient-13" x1="-1.084" y1="2.353" x2="-1.041" y2="2.353" xlink:href="#linear-gradient"/>
    <clipPath id="clip-path-27">
      <path id="패스_17744" data-name="패스 17744" d="M32.013,81.465c-3.07,1.772-3.086,4.645-.037,6.418a12.213,12.213,0,0,0,11.081,0c3.069-1.773,3.085-4.646.035-6.418a11.248,11.248,0,0,0-5.533-1.329,11.329,11.329,0,0,0-5.547,1.329" transform="translate(-29.7 -80.136)" fill="none"/>
    </clipPath>
    <linearGradient id="linear-gradient-14" x1="-1.676" y1="3.05" x2="-1.616" y2="3.05" xlink:href="#linear-gradient-2"/>
    <clipPath id="clip-path-29">
      <path id="패스_17746" data-name="패스 17746" d="M31.826,81.718A5.457,5.457,0,0,0,30.108,83.2a.752.752,0,0,0-.092.157c-.781,1.544-.139,3.269,1.957,4.481a12.216,12.216,0,0,0,11.086,0,5.536,5.536,0,0,0,1.681-1.422c.956-1.59.349-3.428-1.838-4.693a11.231,11.231,0,0,0-5.532-1.331,11.307,11.307,0,0,0-5.545,1.331" transform="translate(-29.696 -80.387)" fill="none"/>
    </clipPath>
    <linearGradient id="linear-gradient-15" x1="-1.765" y1="3.142" x2="-1.703" y2="3.142" xlink:href="#linear-gradient-3"/>
    <clipPath id="clip-path-31">
      <path id="패스_17749" data-name="패스 17749" d="M30.39,78.2c-4.217,2.434-4.238,6.381-.049,8.816a16.775,16.775,0,0,0,15.221,0c4.217-2.436,4.239-6.383.049-8.817a15.453,15.453,0,0,0-7.6-1.826A15.576,15.576,0,0,0,30.39,78.2" transform="translate(-27.213 -76.376)" fill="none"/>
    </clipPath>
    <linearGradient id="linear-gradient-16" x1="-1.084" y1="2.471" x2="-1.041" y2="2.471" xlink:href="#linear-gradient"/>
    <clipPath id="clip-path-32">
      <path id="패스_17750" data-name="패스 17750" d="M32.013,79.145c-3.07,1.773-3.086,4.646-.037,6.42a12.221,12.221,0,0,0,11.081,0c3.069-1.773,3.085-4.646.035-6.42a11.26,11.26,0,0,0-5.533-1.328,11.341,11.341,0,0,0-5.547,1.328" transform="translate(-29.7 -77.817)" fill="none"/>
    </clipPath>
    <linearGradient id="linear-gradient-17" x1="-1.676" y1="3.213" x2="-1.616" y2="3.213" xlink:href="#linear-gradient-2"/>
    <clipPath id="clip-path-34">
      <path id="패스_17752" data-name="패스 17752" d="M31.826,79.4a5.475,5.475,0,0,0-1.718,1.479.7.7,0,0,0-.092.157c-.781,1.544-.139,3.271,1.957,4.481a12.223,12.223,0,0,0,11.086,0,5.506,5.506,0,0,0,1.681-1.424c.956-1.588.349-3.426-1.838-4.693a11.256,11.256,0,0,0-5.532-1.328A11.332,11.332,0,0,0,31.826,79.4" transform="translate(-29.696 -78.069)" fill="none"/>
    </clipPath>
    <linearGradient id="linear-gradient-18" x1="-1.765" y1="3.311" x2="-1.703" y2="3.311" xlink:href="#linear-gradient-3"/>
    <clipPath id="clip-path-36">
      <path id="패스_17754" data-name="패스 17754" d="M48.7,97.993c-4.217,2.435-4.239,6.382-.049,8.817a16.776,16.776,0,0,0,15.22,0c4.218-2.435,4.239-6.382.051-8.817a15.47,15.47,0,0,0-7.6-1.825A15.587,15.587,0,0,0,48.7,97.993" transform="translate(-45.524 -96.168)" fill="none"/>
    </clipPath>
    <linearGradient id="linear-gradient-19" x1="-1.882" y1="1.464" x2="-1.839" y2="1.464" xlink:href="#linear-gradient"/>
    <clipPath id="clip-path-37">
      <path id="패스_17755" data-name="패스 17755" d="M50.321,98.937c-3.069,1.772-3.084,4.645-.034,6.42a12.216,12.216,0,0,0,11.079,0c3.071-1.772,3.087-4.648.038-6.42a12.213,12.213,0,0,0-11.082,0" transform="translate(-48.01 -97.608)" fill="none"/>
    </clipPath>
    <linearGradient id="linear-gradient-20" x1="-2.772" y1="1.83" x2="-2.713" y2="1.83" xlink:href="#linear-gradient-2"/>
    <clipPath id="clip-path-39">
      <path id="패스_17757" data-name="패스 17757" d="M50.137,99.188a5.5,5.5,0,0,0-1.719,1.479.745.745,0,0,0-.091.157c-.782,1.544-.139,3.271,1.955,4.483a12.228,12.228,0,0,0,11.088,0,5.518,5.518,0,0,0,1.68-1.424c.955-1.59.349-3.426-1.837-4.695a12.211,12.211,0,0,0-11.077,0" transform="translate(-48.006 -97.86)" fill="none"/>
    </clipPath>
    <linearGradient id="linear-gradient-21" x1="-2.908" y1="1.873" x2="-2.846" y2="1.873" xlink:href="#linear-gradient-3"/>
    <clipPath id="clip-path-41">
      <path id="패스_17760" data-name="패스 17760" d="M48.7,95.633c-4.217,2.435-4.239,6.382-.049,8.817a16.776,16.776,0,0,0,15.22,0c4.218-2.435,4.239-6.382.051-8.817a15.458,15.458,0,0,0-7.6-1.826A15.575,15.575,0,0,0,48.7,95.633" transform="translate(-45.524 -93.807)" fill="none"/>
    </clipPath>
    <linearGradient id="linear-gradient-22" x1="-1.882" y1="1.584" x2="-1.839" y2="1.584" xlink:href="#linear-gradient"/>
    <clipPath id="clip-path-42">
      <path id="패스_17761" data-name="패스 17761" d="M50.321,96.576c-3.069,1.771-3.084,4.646-.034,6.418a12.2,12.2,0,0,0,11.079,0c3.071-1.772,3.087-4.646.038-6.418a12.223,12.223,0,0,0-11.082,0" transform="translate(-48.01 -95.248)" fill="none"/>
    </clipPath>
    <linearGradient id="linear-gradient-23" x1="-2.772" y1="1.995" x2="-2.713" y2="1.995" xlink:href="#linear-gradient-2"/>
    <clipPath id="clip-path-44">
      <path id="패스_17763" data-name="패스 17763" d="M50.137,96.828a5.465,5.465,0,0,0-1.719,1.479.69.69,0,0,0-.091.157c-.782,1.543-.139,3.27,1.955,4.481a12.221,12.221,0,0,0,11.088,0,5.518,5.518,0,0,0,1.68-1.424c.955-1.588.349-3.425-1.837-4.693a12.2,12.2,0,0,0-11.077,0" transform="translate(-48.006 -95.499)" fill="none"/>
    </clipPath>
    <linearGradient id="linear-gradient-24" x1="-2.908" y1="2.045" x2="-2.846" y2="2.045" xlink:href="#linear-gradient-3"/>
    <clipPath id="clip-path-46">
      <path id="패스_17766" data-name="패스 17766" d="M48.7,93.272c-4.217,2.434-4.239,6.383-.049,8.817a16.776,16.776,0,0,0,15.22,0c4.218-2.434,4.239-6.383.051-8.817a15.47,15.47,0,0,0-7.6-1.825A15.587,15.587,0,0,0,48.7,93.272" transform="translate(-45.524 -91.447)" fill="none"/>
    </clipPath>
    <linearGradient id="linear-gradient-25" x1="-1.882" y1="1.705" x2="-1.839" y2="1.705" xlink:href="#linear-gradient"/>
    <clipPath id="clip-path-47">
      <path id="패스_17767" data-name="패스 17767" d="M50.321,94.218c-3.069,1.772-3.084,4.644-.034,6.416a12.208,12.208,0,0,0,11.079,0c3.071-1.772,3.087-4.644.038-6.416a12.2,12.2,0,0,0-11.082,0" transform="translate(-48.01 -92.887)" fill="none"/>
    </clipPath>
    <linearGradient id="linear-gradient-26" x1="-2.773" y1="2.16" x2="-2.713" y2="2.16" xlink:href="#linear-gradient-2"/>
    <clipPath id="clip-path-49">
      <path id="패스_17769" data-name="패스 17769" d="M50.137,94.467a5.48,5.48,0,0,0-1.719,1.479.716.716,0,0,0-.091.157c-.782,1.544-.139,3.27,1.955,4.483a12.228,12.228,0,0,0,11.088,0,5.518,5.518,0,0,0,1.68-1.424c.955-1.59.349-3.428-1.837-4.695a12.2,12.2,0,0,0-11.077,0" transform="translate(-48.006 -93.138)" fill="none"/>
    </clipPath>
    <linearGradient id="linear-gradient-27" x1="-2.908" y1="2.216" x2="-2.846" y2="2.216" xlink:href="#linear-gradient-3"/>
    <clipPath id="clip-path-51">
      <path id="패스_17773" data-name="패스 17773" d="M51.842,83.343c7.283,4.264,64.39,37.822,70.716,41.282,8.93,4.885,11.366,6.016,20.1,1.46s30.2-17.231,33.7-19.456c6.04-3.837,4.553-5.9.039-9.143-10.607-7.63-130.816-23.4-130.816-23.4s-3.007,3.83,6.265,9.255" transform="translate(-45.111 -74.088)"/>
    </clipPath>
    <clipPath id="clip-path-52">
      <path id="패스_17774" data-name="패스 17774" d="M85.757,52.782,49.3,73.831v-.445H45.451v4.069h.011a3.108,3.108,0,0,0,1.869,2.751l79.626,45.971a10.025,10.025,0,0,0,9.07,0l38.428-22.186a3.23,3.23,0,0,0,1.871-2.53h.006V97.3h-3.344v.6L94.827,52.782a10.025,10.025,0,0,0-9.07,0" transform="translate(-45.451 -51.698)" fill="#cbcbcb"/>
    </clipPath>
    <clipPath id="clip-path-54">
      <path id="패스_17776" data-name="패스 17776" d="M52.215,77.064l68.035,39.278,43.138-24.906L95.354,52.157Z" transform="translate(-52.215 -52.157)" fill="none"/>
    </clipPath>
    <linearGradient id="linear-gradient-28" x1="0.264" y1="0.23" x2="0.515" y2="0.881" gradientUnits="objectBoundingBox">
      <stop offset="0" stop-color="#3b4b98"/>
      <stop offset="1" stop-color="#3c55ce"/>
    </linearGradient>
    <clipPath id="clip-path-56">
      <rect id="사각형_7075" data-name="사각형 7075" width="7.33" height="4.226" fill="none"/>
    </clipPath>
    <clipPath id="clip-path-57">
      <rect id="사각형_7076" data-name="사각형 7076" width="3.459" height="4.226" fill="none"/>
    </clipPath>
    <clipPath id="clip-path-58">
      <rect id="사각형_7077" data-name="사각형 7077" width="2.093" height="3.698" fill="none"/>
    </clipPath>
    <clipPath id="clip-path-59">
      <path id="패스_17786" data-name="패스 17786" d="M91.248,69.12a14.249,14.249,0,0,1,6.023,1.7c3.853,2.225,4.039,5.77.555,8.119l7.123,4.192c7.515-4.65,7.346-11.923-.5-16.453a28.746,28.746,0,0,0-12.785-3.429Z" transform="translate(-91.248 -63.248)" fill="none"/>
    </clipPath>
    <linearGradient id="linear-gradient-29" x1="-5.065" y1="3.402" x2="-5.009" y2="3.402" xlink:href="#linear-gradient"/>
  </defs>
  <g id="그룹_3519" data-name="그룹 3519" transform="translate(-23 -14)">
    <g id="그룹_3518" data-name="그룹 3518" transform="translate(23 14)" clip-path="url(#clip-path)">
      <g id="그룹_3398" data-name="그룹 3398" transform="translate(53.569 82.645)" opacity="0.2">
        <g id="그룹_3397" data-name="그룹 3397" clip-path="url(#clip-path-2)">
          <rect id="사각형_7022" data-name="사각형 7022" width="27.466" height="18.408" transform="translate(-3.66 0.47) rotate(-10.557)"/>
        </g>
      </g>
      <g id="그룹_3400" data-name="그룹 3400" transform="translate(75.252 93.427)" opacity="0.2">
        <g id="그룹_3399" data-name="그룹 3399" clip-path="url(#clip-path-3)">
          <rect id="사각형_7023" data-name="사각형 7023" width="27.465" height="18.408" transform="matrix(0.983, -0.183, 0.183, 0.983, -3.66, 0.47)"/>
        </g>
      </g>
      <g id="그룹_3402" data-name="그룹 3402" transform="translate(32.043 70.447)" opacity="0.2">
        <g id="그룹_3401" data-name="그룹 3401" clip-path="url(#clip-path-4)">
          <rect id="사각형_7024" data-name="사각형 7024" width="27.464" height="18.408" transform="matrix(0.983, -0.183, 0.183, 0.983, -3.658, 0.47)"/>
        </g>
      </g>
      <g id="그룹_3404" data-name="그룹 3404" transform="translate(0 -35.324)">
        <g id="그룹_3403" data-name="그룹 3403" transform="translate(0 0)" clip-path="url(#clip-path-5)">
          <path id="패스_17719" data-name="패스 17719" d="M64.264,112.573a6.7,6.7,0,0,1,2.747-2.685,16.771,16.771,0,0,1,15.221,0,6.583,6.583,0,0,1,2.715,2.685h.412V114.3h0c-.008,1.6-1.068,3.192-3.176,4.408a16.781,16.781,0,0,1-15.222,0c-2.094-1.216-3.136-2.813-3.126-4.408v-1.723Z" transform="translate(11.329 19.179)" fill="#fbb951"/>
        </g>
      </g>
      <g id="그룹_3406" data-name="그룹 3406" transform="translate(75.163 90.195)">
        <g id="그룹_3405" data-name="그룹 3405" clip-path="url(#clip-path-6)">
          <rect id="사각형_7026" data-name="사각형 7026" width="27.019" height="23.149" transform="translate(-6.724 3.269) rotate(-30)" fill="url(#linear-gradient)"/>
        </g>
      </g>
      <g id="그룹_3408" data-name="그룹 3408" transform="translate(78.091 91.889)">
        <g id="그룹_3407" data-name="그룹 3407" clip-path="url(#clip-path-7)">
          <rect id="사각형_7027" data-name="사각형 7027" width="19.669" height="16.851" transform="translate(-4.895 2.38) rotate(-30)" fill="url(#linear-gradient-2)"/>
        </g>
      </g>
      <g id="그룹_3410" data-name="그룹 3410" transform="translate(0 -35.324)">
        <g id="그룹_3409" data-name="그룹 3409" transform="translate(0 0)" clip-path="url(#clip-path-5)">
          <path id="패스_17722" data-name="패스 17722" d="M68.593,115.783a12.223,12.223,0,0,0,11.086,0,5.5,5.5,0,0,0,1.681-1.425c1.222-1.653.67-3.637-1.644-4.987a12.218,12.218,0,0,0-11.087,0,5.027,5.027,0,0,0-1.9,1.772.7.7,0,0,0-.092.157c-.781,1.543-.138,3.27,1.956,4.483" transform="translate(11.77 19.175)" fill="#fbb951"/>
        </g>
      </g>
      <g id="그룹_3412" data-name="그룹 3412" transform="translate(78.087 92.186)">
        <g id="그룹_3411" data-name="그룹 3411" clip-path="url(#clip-path-9)">
          <rect id="사각형_7029" data-name="사각형 7029" width="18.865" height="16.214" transform="matrix(0.866, -0.5, 0.5, 0.866, -4.452, 2.305)" fill="url(#linear-gradient-3)"/>
        </g>
      </g>
      <g id="그룹_3414" data-name="그룹 3414" transform="translate(0 -35.324)">
        <g id="그룹_3413" data-name="그룹 3413" transform="translate(0 0)" clip-path="url(#clip-path-5)">
          <path id="패스_17724" data-name="패스 17724" d="M27.644,91.628a6.7,6.7,0,0,1,2.746-2.685,16.767,16.767,0,0,1,15.221,0,6.594,6.594,0,0,1,2.716,2.685h.411v1.723c-.009,1.6-1.068,3.192-3.177,4.408a16.778,16.778,0,0,1-15.221,0c-2.094-1.218-3.136-2.813-3.127-4.408V91.628Z" transform="translate(4.83 15.461)" fill="#fbb951"/>
        </g>
      </g>
      <g id="그룹_3416" data-name="그룹 3416" transform="translate(32.043 65.531)">
        <g id="그룹_3415" data-name="그룹 3415" clip-path="url(#clip-path-11)">
          <rect id="사각형_7031" data-name="사각형 7031" width="27.018" height="23.148" transform="matrix(0.866, -0.5, 0.5, 0.866, -6.723, 3.269)" fill="url(#linear-gradient-4)"/>
        </g>
      </g>
      <g id="그룹_3418" data-name="그룹 3418" transform="translate(34.971 67.227)">
        <g id="그룹_3417" data-name="그룹 3417" clip-path="url(#clip-path-12)">
          <rect id="사각형_7032" data-name="사각형 7032" width="19.67" height="16.853" transform="translate(-4.896 2.38) rotate(-30)" fill="url(#linear-gradient-5)"/>
        </g>
      </g>
      <g id="그룹_3420" data-name="그룹 3420" transform="translate(0 -35.324)">
        <g id="그룹_3419" data-name="그룹 3419" transform="translate(0 0)" clip-path="url(#clip-path-5)">
          <path id="패스_17727" data-name="패스 17727" d="M31.973,94.838a12.223,12.223,0,0,0,11.086,0,5.51,5.51,0,0,0,1.681-1.425c1.221-1.653.67-3.637-1.645-4.987a12.216,12.216,0,0,0-11.086,0,5.031,5.031,0,0,0-1.9,1.772.745.745,0,0,0-.092.155c-.781,1.545-.138,3.271,1.957,4.484" transform="translate(5.27 15.458)" fill="#fbb951"/>
        </g>
      </g>
      <g id="그룹_3422" data-name="그룹 3422" transform="translate(34.966 67.524)">
        <g id="그룹_3421" data-name="그룹 3421" clip-path="url(#clip-path-14)">
          <rect id="사각형_7034" data-name="사각형 7034" width="18.866" height="16.215" transform="translate(-4.452 2.305) rotate(-30)" fill="url(#linear-gradient-6)"/>
        </g>
      </g>
      <g id="그룹_3424" data-name="그룹 3424" transform="translate(0 -35.324)">
        <g id="그룹_3423" data-name="그룹 3423" transform="translate(0 0)" clip-path="url(#clip-path-5)">
          <path id="패스_17729" data-name="패스 17729" d="M32.607,90.938a2.092,2.092,0,0,0-.767.676,1.041,1.041,0,0,0-.171.735,1.419,1.419,0,0,0,.384.741,2.56,2.56,0,0,0,.318.29l-.543.312.887.515.491-.283a4.9,4.9,0,0,0,.509.231,6.808,6.808,0,0,0,.751.248c.237.062.45.108.631.138a2.539,2.539,0,0,0,.419.045,1.173,1.173,0,0,0,.283-.047,1.86,1.86,0,0,0,.33-.155,1.636,1.636,0,0,0,.208-.132.679.679,0,0,0,.1-.1l.015-.079-.06-.059a.915.915,0,0,0-.338-.079c-.167-.021-.374-.053-.611-.1s-.505-.118-.8-.2a4.147,4.147,0,0,1-.877-.392,2.038,2.038,0,0,1-.523-.405.905.905,0,0,1-.224-.423.584.584,0,0,1,.1-.411,1.223,1.223,0,0,1,.432-.377,1.839,1.839,0,0,1,.714-.237,3.72,3.72,0,0,1,.8-.009,7.865,7.865,0,0,1,.878.135c.3.065.621.132.938.2s.641.127.974.173a6.071,6.071,0,0,0,.99.071,5.217,5.217,0,0,0,.986-.108,3.527,3.527,0,0,0,.962-.38,1.943,1.943,0,0,0,.685-.6.917.917,0,0,0,.15-.651,1.257,1.257,0,0,0-.356-.659,1.731,1.731,0,0,0-.2-.184l.8-.463L41,88.4l-.745.43a2.735,2.735,0,0,0-.323-.159c-.2-.08-.409-.154-.61-.212a5.113,5.113,0,0,0-.57-.144,3.042,3.042,0,0,0-.384-.047l-.167.008-.111.031-.142.059c-.051.028-.117.06-.192.1s-.132.082-.183.118a.681.681,0,0,0-.112.093l-.035.079.051.059a.958.958,0,0,0,.287.073c.146.02.327.049.529.092a4.843,4.843,0,0,1,.671.167,3.337,3.337,0,0,1,.706.309,1.8,1.8,0,0,1,.472.376.658.658,0,0,1,.165.359.537.537,0,0,1-.113.333,1.125,1.125,0,0,1-.34.284,1.914,1.914,0,0,1-.7.238,3.562,3.562,0,0,1-.809.006,7.7,7.7,0,0,1-.888-.135c-.313-.064-.631-.131-.948-.2s-.646-.13-.975-.18a6.427,6.427,0,0,0-.995-.078,4.427,4.427,0,0,0-.986.108,3.271,3.271,0,0,0-.947.371" transform="translate(5.619 15.665)" fill="#ffe555"/>
          <path id="패스_17730" data-name="패스 17730" d="M27.644,89.31a6.7,6.7,0,0,1,2.746-2.687,16.771,16.771,0,0,1,15.221,0,6.6,6.6,0,0,1,2.716,2.687h.411v1.721c-.009,1.6-1.068,3.191-3.177,4.408a16.775,16.775,0,0,1-15.221,0c-2.094-1.216-3.136-2.812-3.127-4.407V89.31Z" transform="translate(4.83 15.05)" fill="#fbb951"/>
        </g>
      </g>
      <g id="그룹_3426" data-name="그룹 3426" transform="translate(32.043 62.801)">
        <g id="그룹_3425" data-name="그룹 3425" clip-path="url(#clip-path-16)">
          <rect id="사각형_7036" data-name="사각형 7036" width="27.018" height="23.148" transform="translate(-6.723 3.269) rotate(-30)" fill="url(#linear-gradient-7)"/>
        </g>
      </g>
      <g id="그룹_3428" data-name="그룹 3428" transform="translate(34.971 64.496)">
        <g id="그룹_3427" data-name="그룹 3427" clip-path="url(#clip-path-17)">
          <rect id="사각형_7037" data-name="사각형 7037" width="19.669" height="16.851" transform="translate(-4.895 2.38) rotate(-30)" fill="url(#linear-gradient-8)"/>
        </g>
      </g>
      <g id="그룹_3430" data-name="그룹 3430" transform="translate(0 -35.324)">
        <g id="그룹_3429" data-name="그룹 3429" transform="translate(0 0)" clip-path="url(#clip-path-5)">
          <path id="패스_17733" data-name="패스 17733" d="M31.973,92.517a12.216,12.216,0,0,0,11.086,0,5.475,5.475,0,0,0,1.681-1.424c1.221-1.652.67-3.637-1.645-4.987a12.216,12.216,0,0,0-11.086,0,5.04,5.04,0,0,0-1.9,1.772.716.716,0,0,0-.092.155c-.781,1.544-.138,3.271,1.957,4.483" transform="translate(5.27 15.046)" fill="#fbb951"/>
        </g>
      </g>
      <g id="그룹_3432" data-name="그룹 3432" transform="translate(34.966 64.793)">
        <g id="그룹_3431" data-name="그룹 3431" clip-path="url(#clip-path-19)">
          <rect id="사각형_7039" data-name="사각형 7039" width="18.865" height="16.214" transform="translate(-4.452 2.305) rotate(-30)" fill="url(#linear-gradient-9)"/>
        </g>
      </g>
      <g id="그룹_3434" data-name="그룹 3434" transform="translate(0 -35.324)">
        <g id="그룹_3433" data-name="그룹 3433" transform="translate(0 0)" clip-path="url(#clip-path-5)">
          <path id="패스_17735" data-name="패스 17735" d="M32.607,88.619a2.1,2.1,0,0,0-.767.676,1.04,1.04,0,0,0-.171.735,1.424,1.424,0,0,0,.384.741,2.56,2.56,0,0,0,.318.29l-.543.313.887.515.491-.284a5.16,5.16,0,0,0,.509.231,7.065,7.065,0,0,0,.751.248c.237.061.45.108.631.139a2.792,2.792,0,0,0,.419.044,1.233,1.233,0,0,0,.283-.047,1.86,1.86,0,0,0,.33-.155,1.779,1.779,0,0,0,.208-.132.679.679,0,0,0,.1-.1l.015-.08-.06-.059a.946.946,0,0,0-.338-.078c-.167-.021-.374-.053-.611-.1s-.505-.118-.8-.2a4.147,4.147,0,0,1-.877-.392,2.063,2.063,0,0,1-.523-.4.912.912,0,0,1-.224-.425.578.578,0,0,1,.1-.409,1.213,1.213,0,0,1,.432-.378,1.82,1.82,0,0,1,.714-.237,3.51,3.51,0,0,1,.8-.008,7.841,7.841,0,0,1,.878.133c.3.065.621.133.938.2s.641.127.974.174a6.2,6.2,0,0,0,.99.068,5.121,5.121,0,0,0,.986-.107,3.494,3.494,0,0,0,.962-.382,1.93,1.93,0,0,0,.685-.6.918.918,0,0,0,.15-.652,1.254,1.254,0,0,0-.356-.658,1.85,1.85,0,0,0-.2-.185l.8-.463L41,86.077l-.745.43a2.728,2.728,0,0,0-.323-.158,5.974,5.974,0,0,0-.61-.214,5.1,5.1,0,0,0-.57-.142,3.042,3.042,0,0,0-.384-.047l-.167.008-.111.029-.142.059c-.051.028-.117.061-.192.1s-.132.082-.183.117a.741.741,0,0,0-.112.094l-.035.079.051.058a.88.88,0,0,0,.287.074c.146.02.327.051.529.091a5.2,5.2,0,0,1,.671.167,3.4,3.4,0,0,1,.706.31,1.8,1.8,0,0,1,.472.374.665.665,0,0,1,.165.36.535.535,0,0,1-.113.333,1.162,1.162,0,0,1-.34.285,1.934,1.934,0,0,1-.7.237,3.631,3.631,0,0,1-.809.006,7.7,7.7,0,0,1-.888-.135c-.313-.064-.631-.132-.948-.2s-.646-.128-.975-.178a6.15,6.15,0,0,0-.995-.079,4.5,4.5,0,0,0-.986.108,3.3,3.3,0,0,0-.947.371" transform="translate(5.619 15.254)" fill="#ffe555"/>
          <path id="패스_17736" data-name="패스 17736" d="M27.644,86.989A6.7,6.7,0,0,1,30.39,84.3a16.771,16.771,0,0,1,15.221,0,6.6,6.6,0,0,1,2.716,2.686h.411v1.723c-.009,1.594-1.068,3.191-3.177,4.408a16.778,16.778,0,0,1-15.221,0c-2.094-1.218-3.136-2.814-3.127-4.408V86.989Z" transform="translate(4.83 14.638)" fill="#fbb951"/>
        </g>
      </g>
      <g id="그룹_3436" data-name="그룹 3436" transform="translate(32.043 60.069)">
        <g id="그룹_3435" data-name="그룹 3435" clip-path="url(#clip-path-21)">
          <rect id="사각형_7041" data-name="사각형 7041" width="27.019" height="23.149" transform="translate(-6.724 3.269) rotate(-30)" fill="url(#linear-gradient-10)"/>
        </g>
      </g>
      <g id="그룹_3438" data-name="그룹 3438" transform="translate(34.971 61.766)">
        <g id="그룹_3437" data-name="그룹 3437" clip-path="url(#clip-path-22)">
          <rect id="사각형_7042" data-name="사각형 7042" width="19.669" height="16.851" transform="matrix(0.866, -0.5, 0.5, 0.866, -4.895, 2.38)" fill="url(#linear-gradient-11)"/>
        </g>
      </g>
      <g id="그룹_3440" data-name="그룹 3440" transform="translate(0 -35.324)">
        <g id="그룹_3439" data-name="그룹 3439" transform="translate(0 0)" clip-path="url(#clip-path-5)">
          <path id="패스_17739" data-name="패스 17739" d="M31.973,90.2a12.216,12.216,0,0,0,11.086,0,5.475,5.475,0,0,0,1.681-1.424c1.221-1.653.67-3.637-1.645-4.988a12.223,12.223,0,0,0-11.086,0,5.035,5.035,0,0,0-1.9,1.774.658.658,0,0,0-.092.154c-.781,1.544-.138,3.271,1.957,4.483" transform="translate(5.27 14.635)" fill="#fbb951"/>
        </g>
      </g>
      <g id="그룹_3442" data-name="그룹 3442" transform="translate(34.966 62.061)">
        <g id="그룹_3441" data-name="그룹 3441" clip-path="url(#clip-path-24)">
          <rect id="사각형_7044" data-name="사각형 7044" width="18.866" height="16.215" transform="translate(-4.452 2.305) rotate(-30)" fill="url(#linear-gradient-12)"/>
        </g>
      </g>
      <g id="그룹_3444" data-name="그룹 3444" transform="translate(0 -35.324)">
        <g id="그룹_3443" data-name="그룹 3443" transform="translate(0 0)" clip-path="url(#clip-path-5)">
          <path id="패스_17741" data-name="패스 17741" d="M32.607,86.3a2.082,2.082,0,0,0-.767.676,1.04,1.04,0,0,0-.171.734,1.415,1.415,0,0,0,.384.741,2.39,2.39,0,0,0,.318.29l-.543.313.887.515.491-.284a4.9,4.9,0,0,0,.509.231,7.085,7.085,0,0,0,.751.25c.237.062.45.108.631.138a2.54,2.54,0,0,0,.419.045A1.234,1.234,0,0,0,35.8,89.9a1.861,1.861,0,0,0,.33-.155,1.777,1.777,0,0,0,.208-.132.678.678,0,0,0,.1-.1l.015-.079-.06-.059a.934.934,0,0,0-.338-.08c-.167-.02-.374-.052-.611-.1s-.505-.118-.8-.206a4.031,4.031,0,0,1-.877-.392,2.062,2.062,0,0,1-.523-.4.917.917,0,0,1-.224-.425.583.583,0,0,1,.1-.41,1.222,1.222,0,0,1,.432-.377,1.839,1.839,0,0,1,.714-.237,3.647,3.647,0,0,1,.8-.009,7.853,7.853,0,0,1,.878.134l.938.2c.317.067.641.126.974.172a6.069,6.069,0,0,0,.99.069,5.032,5.032,0,0,0,.986-.108,3.449,3.449,0,0,0,.962-.379,1.955,1.955,0,0,0,.685-.6.92.92,0,0,0,.15-.652,1.258,1.258,0,0,0-.356-.658,1.732,1.732,0,0,0-.2-.184l.8-.463L41,83.757l-.745.43a3.158,3.158,0,0,0-.323-.159,6.264,6.264,0,0,0-.61-.213,5.1,5.1,0,0,0-.57-.142,2.831,2.831,0,0,0-.384-.047l-.167.008-.111.029-.142.059c-.051.028-.117.061-.192.1s-.132.082-.183.118a.681.681,0,0,0-.112.093l-.035.079.051.059a.958.958,0,0,0,.287.073c.146.02.327.051.529.091a5.017,5.017,0,0,1,.671.167,3.4,3.4,0,0,1,.706.31,1.78,1.78,0,0,1,.472.376.663.663,0,0,1,.165.358.533.533,0,0,1-.113.333,1.111,1.111,0,0,1-.34.285,1.891,1.891,0,0,1-.7.237,3.56,3.56,0,0,1-.809.007,7.961,7.961,0,0,1-.888-.135c-.313-.064-.631-.132-.948-.2s-.646-.131-.975-.18a6.285,6.285,0,0,0-.995-.079,4.428,4.428,0,0,0-.986.11,3.271,3.271,0,0,0-.947.371" transform="translate(5.619 14.842)" fill="#ffe555"/>
          <path id="패스_17742" data-name="패스 17742" d="M27.644,84.67a6.71,6.71,0,0,1,2.746-2.686,16.771,16.771,0,0,1,15.221,0,6.6,6.6,0,0,1,2.716,2.686h.411v1.723c-.009,1.6-1.068,3.191-3.177,4.408a16.786,16.786,0,0,1-15.221,0c-2.094-1.218-3.136-2.813-3.127-4.408V84.67Z" transform="translate(4.83 14.226)" fill="#fbb951"/>
        </g>
      </g>
      <g id="그룹_3446" data-name="그룹 3446" transform="translate(32.043 57.339)">
        <g id="그룹_3445" data-name="그룹 3445" clip-path="url(#clip-path-26)">
          <rect id="사각형_7046" data-name="사각형 7046" width="27.018" height="23.148" transform="translate(-6.723 3.269) rotate(-30)" fill="url(#linear-gradient-13)"/>
        </g>
      </g>
      <g id="그룹_3448" data-name="그룹 3448" transform="translate(34.971 59.034)">
        <g id="그룹_3447" data-name="그룹 3447" clip-path="url(#clip-path-27)">
          <rect id="사각형_7047" data-name="사각형 7047" width="19.669" height="16.852" transform="matrix(0.866, -0.5, 0.5, 0.866, -4.895, 2.38)" fill="url(#linear-gradient-14)"/>
        </g>
      </g>
      <g id="그룹_3450" data-name="그룹 3450" transform="translate(0 -35.324)">
        <g id="그룹_3449" data-name="그룹 3449" transform="translate(0 0)" clip-path="url(#clip-path-5)">
          <path id="패스_17745" data-name="패스 17745" d="M31.973,87.879a12.216,12.216,0,0,0,11.086,0,5.508,5.508,0,0,0,1.681-1.424c1.221-1.653.67-3.637-1.645-4.987a12.216,12.216,0,0,0-11.086,0,5.031,5.031,0,0,0-1.9,1.772.69.69,0,0,0-.092.155c-.781,1.544-.138,3.27,1.957,4.483" transform="translate(5.27 14.223)" fill="#fbb951"/>
        </g>
      </g>
      <g id="그룹_3452" data-name="그룹 3452" transform="translate(34.966 59.33)">
        <g id="그룹_3451" data-name="그룹 3451" clip-path="url(#clip-path-29)">
          <rect id="사각형_7049" data-name="사각형 7049" width="18.866" height="16.215" transform="matrix(0.866, -0.5, 0.5, 0.866, -4.452, 2.305)" fill="url(#linear-gradient-15)"/>
        </g>
      </g>
      <g id="그룹_3454" data-name="그룹 3454" transform="translate(0 -35.324)">
        <g id="그룹_3453" data-name="그룹 3453" transform="translate(0 0)" clip-path="url(#clip-path-5)">
          <path id="패스_17747" data-name="패스 17747" d="M32.607,83.98a2.082,2.082,0,0,0-.767.676,1.04,1.04,0,0,0-.171.735,1.416,1.416,0,0,0,.384.739,2.472,2.472,0,0,0,.318.29l-.543.313.887.515.491-.283a5.46,5.46,0,0,0,.509.232,7.044,7.044,0,0,0,.751.247c.237.061.45.108.631.138a2.507,2.507,0,0,0,.419.044,1.17,1.17,0,0,0,.283-.046,1.948,1.948,0,0,0,.33-.155,1.779,1.779,0,0,0,.208-.132.678.678,0,0,0,.1-.1l.015-.08-.06-.059a.946.946,0,0,0-.338-.078c-.167-.021-.374-.053-.611-.1s-.505-.117-.8-.2a4.094,4.094,0,0,1-.877-.393,2.037,2.037,0,0,1-.523-.4.911.911,0,0,1-.224-.423.582.582,0,0,1,.1-.411,1.2,1.2,0,0,1,.432-.377,1.82,1.82,0,0,1,.714-.237,3.647,3.647,0,0,1,.8-.009,8.136,8.136,0,0,1,.878.134l.938.2c.317.068.641.127.974.173a6.207,6.207,0,0,0,.99.071,5.217,5.217,0,0,0,.986-.108,3.494,3.494,0,0,0,.962-.382,1.951,1.951,0,0,0,.685-.6.923.923,0,0,0,.15-.652,1.249,1.249,0,0,0-.356-.659,1.981,1.981,0,0,0-.2-.185l.8-.462L41,81.438l-.745.429a2.922,2.922,0,0,0-.323-.158c-.2-.081-.409-.153-.61-.212a5.113,5.113,0,0,0-.57-.144,3.043,3.043,0,0,0-.384-.047l-.167.008-.111.029-.142.059c-.051.029-.117.06-.192.1s-.132.084-.183.118a.741.741,0,0,0-.112.094l-.035.079.051.058a.913.913,0,0,0,.287.074c.146.02.327.049.529.091a5.2,5.2,0,0,1,.671.167,3.283,3.283,0,0,1,.706.31,1.8,1.8,0,0,1,.472.374.666.666,0,0,1,.165.359.533.533,0,0,1-.113.333,1.127,1.127,0,0,1-.34.285,1.914,1.914,0,0,1-.7.238,3.7,3.7,0,0,1-.809.006,7.961,7.961,0,0,1-.888-.135l-.948-.2c-.319-.068-.646-.13-.975-.179a6.287,6.287,0,0,0-.995-.08,4.5,4.5,0,0,0-.986.108,3.308,3.308,0,0,0-.947.372" transform="translate(5.619 14.43)" fill="#ffe555"/>
          <path id="패스_17748" data-name="패스 17748" d="M27.644,82.351a6.7,6.7,0,0,1,2.746-2.686,16.771,16.771,0,0,1,15.221,0,6.6,6.6,0,0,1,2.716,2.686h.411v1.723c-.009,1.594-1.068,3.191-3.177,4.407a16.778,16.778,0,0,1-15.221,0c-2.094-1.216-3.136-2.813-3.127-4.407V82.351Z" transform="translate(4.83 13.815)" fill="#fbb951"/>
        </g>
      </g>
      <g id="그룹_3456" data-name="그룹 3456" transform="translate(32.043 54.607)">
        <g id="그룹_3455" data-name="그룹 3455" clip-path="url(#clip-path-31)">
          <rect id="사각형_7051" data-name="사각형 7051" width="27.019" height="23.149" transform="translate(-6.724 3.269) rotate(-30)" fill="url(#linear-gradient-16)"/>
        </g>
      </g>
      <g id="그룹_3458" data-name="그룹 3458" transform="translate(34.971 56.304)">
        <g id="그룹_3457" data-name="그룹 3457" clip-path="url(#clip-path-32)">
          <rect id="사각형_7052" data-name="사각형 7052" width="19.669" height="16.851" transform="translate(-4.895 2.38) rotate(-30)" fill="url(#linear-gradient-17)"/>
        </g>
      </g>
      <g id="그룹_3460" data-name="그룹 3460" transform="translate(0 -35.324)">
        <g id="그룹_3459" data-name="그룹 3459" transform="translate(0 0)" clip-path="url(#clip-path-5)">
          <path id="패스_17751" data-name="패스 17751" d="M31.973,85.559a12.223,12.223,0,0,0,11.086,0,5.508,5.508,0,0,0,1.681-1.424c1.221-1.653.67-3.638-1.645-4.988a12.223,12.223,0,0,0-11.086,0,5.042,5.042,0,0,0-1.9,1.773.689.689,0,0,0-.092.155c-.781,1.544-.138,3.271,1.957,4.483" transform="translate(5.27 13.811)" fill="#fbb951"/>
        </g>
      </g>
      <g id="그룹_3462" data-name="그룹 3462" transform="translate(34.966 56.6)">
        <g id="그룹_3461" data-name="그룹 3461" clip-path="url(#clip-path-34)">
          <rect id="사각형_7054" data-name="사각형 7054" width="18.864" height="16.213" transform="translate(-4.451 2.304) rotate(-30)" fill="url(#linear-gradient-18)"/>
        </g>
      </g>
      <g id="그룹_3464" data-name="그룹 3464" transform="translate(0 -35.324)">
        <g id="그룹_3463" data-name="그룹 3463" transform="translate(0 0)" clip-path="url(#clip-path-5)">
          <path id="패스_17753" data-name="패스 17753" d="M45.955,102.143A6.69,6.69,0,0,1,48.7,99.456a16.771,16.771,0,0,1,15.221,0,6.588,6.588,0,0,1,2.715,2.687h.412v1.723c-.009,1.594-1.069,3.19-3.177,4.407a16.778,16.778,0,0,1-15.221,0c-2.095-1.218-3.137-2.813-3.127-4.407v-1.723Z" transform="translate(8.08 17.327)" fill="#fbb951"/>
        </g>
      </g>
      <g id="그룹_3466" data-name="그룹 3466" transform="translate(53.603 77.912)">
        <g id="그룹_3465" data-name="그룹 3465" clip-path="url(#clip-path-36)">
          <rect id="사각형_7056" data-name="사각형 7056" width="27.018" height="23.148" transform="matrix(0.866, -0.5, 0.5, 0.866, -6.724, 3.269)" fill="url(#linear-gradient-19)"/>
        </g>
      </g>
      <g id="그룹_3468" data-name="그룹 3468" transform="translate(56.531 79.607)">
        <g id="그룹_3467" data-name="그룹 3467" clip-path="url(#clip-path-37)">
          <rect id="사각형_7057" data-name="사각형 7057" width="19.669" height="16.852" transform="matrix(0.866, -0.5, 0.5, 0.866, -4.895, 2.38)" fill="url(#linear-gradient-20)"/>
        </g>
      </g>
      <g id="그룹_3470" data-name="그룹 3470" transform="translate(0 -35.324)">
        <g id="그룹_3469" data-name="그룹 3469" transform="translate(0 0)" clip-path="url(#clip-path-5)">
          <path id="패스_17756" data-name="패스 17756" d="M50.282,105.351a12.226,12.226,0,0,0,11.087,0,5.524,5.524,0,0,0,1.681-1.424c1.221-1.653.67-3.638-1.645-4.988a12.226,12.226,0,0,0-11.087,0,5.027,5.027,0,0,0-1.9,1.772.745.745,0,0,0-.092.155c-.781,1.545-.138,3.271,1.956,4.484" transform="translate(8.52 17.324)" fill="#fbb951"/>
        </g>
      </g>
      <g id="그룹_3472" data-name="그룹 3472" transform="translate(56.526 79.904)">
        <g id="그룹_3471" data-name="그룹 3471" clip-path="url(#clip-path-39)">
          <rect id="사각형_7059" data-name="사각형 7059" width="18.864" height="16.213" transform="matrix(0.866, -0.5, 0.5, 0.866, -4.452, 2.305)" fill="url(#linear-gradient-21)"/>
        </g>
      </g>
      <g id="그룹_3474" data-name="그룹 3474" transform="translate(0 -35.324)">
        <g id="그룹_3473" data-name="그룹 3473" transform="translate(0 0)" clip-path="url(#clip-path-5)">
          <path id="패스_17758" data-name="패스 17758" d="M50.917,101.453a2.071,2.071,0,0,0-.767.675,1.048,1.048,0,0,0-.172.735,1.422,1.422,0,0,0,.385.741,2.546,2.546,0,0,0,.317.29l-.542.313.887.515.491-.284a4.9,4.9,0,0,0,.509.231,6.806,6.806,0,0,0,.751.248c.237.061.449.11.631.139a2.642,2.642,0,0,0,.419.044,1.245,1.245,0,0,0,.283-.047,1.775,1.775,0,0,0,.329-.155,1.609,1.609,0,0,0,.208-.131.7.7,0,0,0,.1-.1l.015-.08-.06-.059a.94.94,0,0,0-.338-.079c-.167-.021-.374-.052-.611-.1s-.5-.117-.8-.2a4.147,4.147,0,0,1-.877-.392,2.042,2.042,0,0,1-.523-.4.914.914,0,0,1-.224-.424.579.579,0,0,1,.1-.41,1.19,1.19,0,0,1,.432-.377,1.8,1.8,0,0,1,.712-.238,3.587,3.587,0,0,1,.8-.008,7.936,7.936,0,0,1,.878.134l.938.2c.317.067.641.126.974.173a6.2,6.2,0,0,0,.989.069,5.125,5.125,0,0,0,.987-.108,3.469,3.469,0,0,0,.961-.38,1.933,1.933,0,0,0,.685-.6.911.911,0,0,0,.151-.651,1.257,1.257,0,0,0-.356-.659,2.114,2.114,0,0,0-.2-.184l.8-.463-.887-.515-.745.43a2.808,2.808,0,0,0-.321-.158,5.966,5.966,0,0,0-.61-.213,5.385,5.385,0,0,0-.57-.144,2.974,2.974,0,0,0-.384-.046l-.167.007-.112.029-.141.059c-.051.029-.117.061-.192.1s-.132.082-.183.118a.746.746,0,0,0-.112.093l-.035.079.049.059a.943.943,0,0,0,.287.073c.147.021.329.051.53.092a4.883,4.883,0,0,1,.671.167,3.3,3.3,0,0,1,.705.309,1.764,1.764,0,0,1,.472.376.664.664,0,0,1,.166.359.537.537,0,0,1-.114.333,1.172,1.172,0,0,1-.339.285,1.905,1.905,0,0,1-.7.237,3.631,3.631,0,0,1-.809.006,7.716,7.716,0,0,1-.889-.135c-.312-.064-.63-.131-.948-.2s-.645-.13-.975-.179a6.272,6.272,0,0,0-.994-.079,4.49,4.49,0,0,0-.986.108,3.274,3.274,0,0,0-.947.372" transform="translate(8.868 17.531)" fill="#ffe555"/>
          <path id="패스_17759" data-name="패스 17759" d="M45.955,99.781A6.686,6.686,0,0,1,48.7,97.1a16.764,16.764,0,0,1,15.221,0,6.584,6.584,0,0,1,2.715,2.685h.412V101.5c-.009,1.594-1.069,3.192-3.177,4.408a16.771,16.771,0,0,1-15.221,0c-2.095-1.218-3.137-2.814-3.127-4.408V99.781Z" transform="translate(8.08 16.908)" fill="#fbb951"/>
        </g>
      </g>
      <g id="그룹_3476" data-name="그룹 3476" transform="translate(53.603 75.131)">
        <g id="그룹_3475" data-name="그룹 3475" clip-path="url(#clip-path-41)">
          <rect id="사각형_7061" data-name="사각형 7061" width="27.019" height="23.149" transform="translate(-6.724 3.269) rotate(-30)" fill="url(#linear-gradient-22)"/>
        </g>
      </g>
      <g id="그룹_3478" data-name="그룹 3478" transform="translate(56.531 76.828)">
        <g id="그룹_3477" data-name="그룹 3477" clip-path="url(#clip-path-42)">
          <rect id="사각형_7062" data-name="사각형 7062" width="19.669" height="16.852" transform="translate(-4.895 2.38) rotate(-30)" fill="url(#linear-gradient-23)"/>
        </g>
      </g>
      <g id="그룹_3480" data-name="그룹 3480" transform="translate(0 -35.324)">
        <g id="그룹_3479" data-name="그룹 3479" transform="translate(0 0)" clip-path="url(#clip-path-5)">
          <path id="패스_17762" data-name="패스 17762" d="M50.282,102.99a12.218,12.218,0,0,0,11.087,0,5.492,5.492,0,0,0,1.681-1.424c1.221-1.653.67-3.637-1.645-4.987a12.218,12.218,0,0,0-11.087,0,5.027,5.027,0,0,0-1.9,1.772.672.672,0,0,0-.092.157c-.781,1.543-.138,3.27,1.956,4.481" transform="translate(8.52 16.905)" fill="#fbb951"/>
        </g>
      </g>
      <g id="그룹_3482" data-name="그룹 3482" transform="translate(56.526 77.124)">
        <g id="그룹_3481" data-name="그룹 3481" clip-path="url(#clip-path-44)">
          <rect id="사각형_7064" data-name="사각형 7064" width="18.865" height="16.214" transform="translate(-4.453 2.305) rotate(-30)" fill="url(#linear-gradient-24)"/>
        </g>
      </g>
      <g id="그룹_3484" data-name="그룹 3484" transform="translate(0 -35.324)">
        <g id="그룹_3483" data-name="그룹 3483" transform="translate(0 0)" clip-path="url(#clip-path-5)">
          <path id="패스_17764" data-name="패스 17764" d="M50.917,99.091a2.093,2.093,0,0,0-.767.676,1.047,1.047,0,0,0-.172.734,1.413,1.413,0,0,0,.385.741,2.376,2.376,0,0,0,.317.29l-.542.313.887.515.491-.284a4.674,4.674,0,0,0,.509.232,6.806,6.806,0,0,0,.751.248c.237.062.449.108.631.138a2.539,2.539,0,0,0,.419.045,1.245,1.245,0,0,0,.283-.047,1.855,1.855,0,0,0,.329-.155,1.6,1.6,0,0,0,.208-.132.641.641,0,0,0,.1-.1l.015-.079-.06-.059a.892.892,0,0,0-.338-.079c-.167-.021-.374-.053-.611-.1s-.5-.118-.8-.2a4.147,4.147,0,0,1-.877-.392,2.018,2.018,0,0,1-.523-.405.9.9,0,0,1-.224-.424.583.583,0,0,1,.1-.41,1.212,1.212,0,0,1,.432-.377,1.834,1.834,0,0,1,.712-.237,3.731,3.731,0,0,1,.8-.009,7.431,7.431,0,0,1,.878.135c.3.065.619.132.938.2s.641.127.974.173a6.2,6.2,0,0,0,.989.071,5.126,5.126,0,0,0,.987-.11,3.465,3.465,0,0,0,.961-.379,1.933,1.933,0,0,0,.685-.6.914.914,0,0,0,.151-.651,1.257,1.257,0,0,0-.356-.659,1.838,1.838,0,0,0-.2-.184l.8-.463-.887-.515-.745.43a2.633,2.633,0,0,0-.321-.159,5.953,5.953,0,0,0-.61-.212,5.4,5.4,0,0,0-.57-.145,2.975,2.975,0,0,0-.384-.046l-.167.008-.112.031-.141.058c-.051.029-.117.061-.192.1a2.078,2.078,0,0,0-.183.118.681.681,0,0,0-.112.093l-.035.079.049.059a1.009,1.009,0,0,0,.287.074c.147.019.329.048.53.089a5.25,5.25,0,0,1,.671.167,3.367,3.367,0,0,1,.705.31,1.742,1.742,0,0,1,.472.376.664.664,0,0,1,.166.359.539.539,0,0,1-.114.333,1.134,1.134,0,0,1-.339.284,1.928,1.928,0,0,1-.7.238,3.562,3.562,0,0,1-.809.006,7.714,7.714,0,0,1-.889-.135c-.312-.064-.63-.132-.948-.2s-.645-.128-.975-.179a6.411,6.411,0,0,0-.994-.078,4.488,4.488,0,0,0-.986.107,3.274,3.274,0,0,0-.947.372" transform="translate(8.868 17.112)" fill="#ffe555"/>
          <path id="패스_17765" data-name="패스 17765" d="M45.955,97.421A6.7,6.7,0,0,1,48.7,94.735a16.771,16.771,0,0,1,15.221,0,6.592,6.592,0,0,1,2.715,2.686h.412v1.723c-.009,1.6-1.069,3.191-3.177,4.407a16.778,16.778,0,0,1-15.221,0c-2.095-1.216-3.137-2.812-3.127-4.407V97.421Z" transform="translate(8.08 16.489)" fill="#fbb951"/>
        </g>
      </g>
      <g id="그룹_3486" data-name="그룹 3486" transform="translate(53.603 72.353)">
        <g id="그룹_3485" data-name="그룹 3485" clip-path="url(#clip-path-46)">
          <rect id="사각형_7066" data-name="사각형 7066" width="27.018" height="23.148" transform="matrix(0.866, -0.5, 0.5, 0.866, -6.724, 3.269)" fill="url(#linear-gradient-25)"/>
        </g>
      </g>
      <g id="그룹_3488" data-name="그룹 3488" transform="translate(56.531 74.048)">
        <g id="그룹_3487" data-name="그룹 3487" clip-path="url(#clip-path-47)">
          <rect id="사각형_7067" data-name="사각형 7067" width="19.669" height="16.851" transform="matrix(0.866, -0.5, 0.5, 0.866, -4.894, 2.38)" fill="url(#linear-gradient-26)"/>
        </g>
      </g>
      <g id="그룹_3490" data-name="그룹 3490" transform="translate(0 -35.324)">
        <g id="그룹_3489" data-name="그룹 3489" transform="translate(0 0)" clip-path="url(#clip-path-5)">
          <path id="패스_17768" data-name="패스 17768" d="M50.282,100.63a12.218,12.218,0,0,0,11.087,0,5.508,5.508,0,0,0,1.681-1.424c1.221-1.653.67-3.637-1.645-4.988a12.226,12.226,0,0,0-11.087,0,5.038,5.038,0,0,0-1.9,1.773.69.69,0,0,0-.092.155c-.781,1.544-.138,3.271,1.956,4.483" transform="translate(8.52 16.486)" fill="#fbb951"/>
        </g>
      </g>
      <g id="그룹_3492" data-name="그룹 3492" transform="translate(56.526 74.344)">
        <g id="그룹_3491" data-name="그룹 3491" clip-path="url(#clip-path-49)">
          <rect id="사각형_7069" data-name="사각형 7069" width="18.865" height="16.214" transform="matrix(0.866, -0.5, 0.5, 0.866, -4.453, 2.305)" fill="url(#linear-gradient-27)"/>
        </g>
      </g>
      <g id="그룹_3494" data-name="그룹 3494" transform="translate(0 -35.324)">
        <g id="그룹_3493" data-name="그룹 3493" transform="translate(0 0)" clip-path="url(#clip-path-5)">
          <path id="_" data-name="₩" d="M12.674,8.358l-.669-.434,3.06-1.535-.927-.6-2.96,1.6-.69-.447.205-.207.277-.282.35-.356.421-.429.585-.582-.877-.566-.864.4-.631.292-.524.242-.415.192-.3.142-.679-.44,2.285-2.021L9.333,2.69,7.145,4.77l-.661-.429-.612.417.766.5L4.42,7.371l1.054.689,1.044-.492.487-.23.532-.253.554-.264.553-.263.62.4-.38.376L8.5,7.715l-.363.363-.331.332L7.1,9.121l1.1.718,3.1-1.554.76.494ZM9.361,6.208l1.3-.607-.9.867Zm-3.2.767.128-.11.164-.139.2-.169q.106-.092.227-.2l.22-.2L7.275,6l.133-.115L7.5,5.813l.5.323-.183.084-.208.1-.233.109-.259.125q-.557.26-.711.335l-.08.035-.063.03-.047.022-.031.013Zm4.31.773L9.832,8.1l-.494.272-.35.192-.211.114-.03-.02.228-.23.193-.191.182-.178.2-.191c.032-.035.066-.07.1-.106l.108-.108.112-.111.114-.115Z" transform="translate(32.7 89.675)" fill="#fbb951"/>
          <path id="_2" data-name="₩" d="M12.674,8.358l-.669-.434,3.06-1.535-.927-.6-2.96,1.6-.69-.447.205-.207.277-.282.35-.356.421-.429.585-.582-.877-.566-.864.4-.631.292-.524.242-.415.192-.3.142-.679-.44,2.285-2.021L9.333,2.69,7.145,4.77l-.661-.429-.612.417.766.5L4.42,7.371l1.054.689,1.044-.492.487-.23.532-.253.554-.264.553-.263.62.4-.38.376L8.5,7.715l-.363.363-.331.332L7.1,9.121l1.1.718,3.1-1.554.76.494ZM9.361,6.208l1.3-.607-.9.867Zm-3.2.767.128-.11.164-.139.2-.169q.106-.092.227-.2l.22-.2L7.275,6l.133-.115L7.5,5.813l.5.323-.183.084-.208.1-.233.109-.259.125q-.557.26-.711.335l-.08.035-.063.03-.047.022-.031.013Zm4.31.773L9.832,8.1l-.494.272-.35.192-.211.114-.03-.02.228-.23.193-.191.182-.178.2-.191c.032-.035.066-.07.1-.106l.108-.108.112-.111.114-.115Z" transform="translate(55.073 107.337)" fill="#fbb951"/>
          <path id="_3" data-name="₩" d="M12.674,8.358l-.669-.434,3.06-1.535-.927-.6-2.96,1.6-.69-.447.205-.207.277-.282.35-.356.421-.429.585-.582-.877-.566-.864.4-.631.292-.524.242-.415.192-.3.142-.679-.44,2.285-2.021L9.333,2.69,7.145,4.77l-.661-.429-.612.417.766.5L4.42,7.371l1.054.689,1.044-.492.487-.23.532-.253.554-.264.553-.263.62.4-.38.376L8.5,7.715l-.363.363-.331.332L7.1,9.121l1.1.718,3.1-1.554.76.494ZM9.361,6.208l1.3-.607-.9.867Zm-3.2.767.128-.11.164-.139.2-.169q.106-.092.227-.2l.22-.2L7.275,6l.133-.115L7.5,5.813l.5.323-.183.084-.208.1-.233.109-.259.125q-.557.26-.711.335l-.08.035-.063.03-.047.022-.031.013Zm4.31.773L9.832,8.1l-.494.272-.35.192-.211.114-.03-.02.228-.23.193-.191.182-.178.2-.191c.032-.035.066-.07.1-.106l.108-.108.112-.111.114-.115Z" transform="translate(76.267 125)" fill="#fbb951"/>
        </g>
      </g>
      <g id="그룹_3496" data-name="그룹 3496" transform="translate(53.117 51.913)">
        <g id="그룹_3495" data-name="그룹 3495" opacity="0.2" clip-path="url(#clip-path-51)">
          <rect id="사각형_7071" data-name="사각형 7071" width="147.788" height="81.083" transform="translate(-12.673 1.877) rotate(-10.498)"/>
        </g>
      </g>
      <g id="그룹_3498" data-name="그룹 3498" transform="translate(53.518 25.549)">
        <g id="그룹_3497" data-name="그룹 3497" clip-path="url(#clip-path-52)">
          <rect id="사각형_7072" data-name="사각형 7072" width="130.929" height="75.925" transform="translate(-0.048 0)" fill="#cbcbcb"/>
        </g>
      </g>
      <g id="그룹_3500" data-name="그룹 3500" transform="translate(0 -35.324)">
        <g id="그룹_3499" data-name="그룹 3499" transform="translate(0 0)" clip-path="url(#clip-path-5)">
          <path id="패스_17775" data-name="패스 17775" d="M174.455,95.309c2.5,1.447,2.5,3.791,0,5.237l-38.428,22.186a10.017,10.017,0,0,1-9.07,0L47.33,76.76c-2.506-1.446-2.506-3.791,0-5.237L85.757,49.336a10.027,10.027,0,0,1,9.071,0Z" transform="translate(8.067 8.564)" fill="#fff"/>
        </g>
      </g>
      <g id="그룹_3502" data-name="그룹 3502" transform="translate(61.482 26.089)">
        <g id="그룹_3501" data-name="그룹 3501" clip-path="url(#clip-path-54)">
          <rect id="사각형_7074" data-name="사각형 7074" width="100.448" height="119.287" transform="translate(-20.234 14.18) rotate(-45)" fill="url(#linear-gradient-28)"/>
        </g>
      </g>
      <g id="그룹_3513" data-name="그룹 3513" transform="translate(0 -35.324)">
        <g id="그룹_3512" data-name="그룹 3512" transform="translate(0 0)" clip-path="url(#clip-path-5)">
          <path id="패스_17777" data-name="패스 17777" d="M139.467,96.882c2.454,1.417,2.454,3.714,0,5.13a9.818,9.818,0,0,1-8.888,0c-2.454-1.417-2.454-3.714,0-5.13a9.825,9.825,0,0,1,8.888,0" transform="translate(22.849 17.006)" fill="#f1f2f2"/>
          <path id="패스_17778" data-name="패스 17778" d="M150.757,89.837a1.093,1.093,0,0,1,0,2.071l-8.312,4.8-3.6-2.077,8.311-4.8a3.975,3.975,0,0,1,3.6.006" transform="translate(24.643 15.867)" fill="#f1f2f2"/>
          <path id="패스_17779" data-name="패스 17779" d="M118.369,108.527a1.094,1.094,0,0,1,0-2.072l8.312-4.8,3.6,2.077-8.311,4.8a3.978,3.978,0,0,1-3.6,0" transform="translate(20.876 18.042)" fill="#f1f2f2"/>
          <path id="패스_17780" data-name="패스 17780" d="M74.765,57.687a.6.6,0,0,1,0,1.127L62.355,65.979a2.153,2.153,0,0,1-1.952,0,.6.6,0,0,1,0-1.127l12.409-7.165a2.153,2.153,0,0,1,1.952,0" transform="translate(10.649 10.197)" fill="#f1f2f2"/>
          <g id="그룹_3505" data-name="그룹 3505" transform="translate(92.61 59.641)" opacity="0.6">
            <g id="그룹_3504" data-name="그룹 3504">
              <g id="그룹_3503" data-name="그룹 3503" clip-path="url(#clip-path-56)">
                <path id="패스_17781" data-name="패스 17781" d="M84.906,51.269c1.249.721,1.409,1.824.48,2.645l-.011.006a3.154,3.154,0,0,1-.47.333c-.107.061-.224.117-.331.166a4.033,4.033,0,0,1-.8.278,6.073,6.073,0,0,1-2.115.147,4.933,4.933,0,0,1-1.931-.585c-1.431-.827-1.442-2.163,0-3a4.417,4.417,0,0,1,.588-.278,5.612,5.612,0,0,1,2.049-.332,6.549,6.549,0,0,1,.929.067,5.941,5.941,0,0,1,1.079.29,3.727,3.727,0,0,1,.533.259" transform="translate(-78.651 -50.651)" fill="#193061"/>
              </g>
            </g>
          </g>
          <g id="그룹_3508" data-name="그룹 3508" transform="translate(94.274 59.641)" opacity="0.1">
            <g id="그룹_3507" data-name="그룹 3507">
              <g id="그룹_3506" data-name="그룹 3506" clip-path="url(#clip-path-57)">
                <path id="패스_17782" data-name="패스 17782" d="M82.114,50.652,83.523,54.7a6.045,6.045,0,0,1-2.115.148l-1.344-3.859a5.588,5.588,0,0,1,2.049-.333" transform="translate(-80.064 -50.651)" fill="#fff"/>
              </g>
            </g>
          </g>
          <g id="그룹_3511" data-name="그룹 3511" transform="translate(97.253 59.71)" opacity="0.1">
            <g id="그룹_3510" data-name="그룹 3510">
              <g id="그룹_3509" data-name="그룹 3509" clip-path="url(#clip-path-58)">
                <path id="패스_17783" data-name="패스 17783" d="M83.673,51l1.014,2.9-.009.007a3.227,3.227,0,0,1-.471.332c-.107.062-.224.118-.331.167l-1.281-3.7a5.941,5.941,0,0,1,1.079.29" transform="translate(-82.594 -50.71)" fill="#fff"/>
              </g>
            </g>
          </g>
          <path id="패스_17784" data-name="패스 17784" d="M83.477,51.8c.811.469.811,1.263-.18,1.719a3.14,3.14,0,0,1-2.646-.087.863.863,0,0,1,0-1.636,3.128,3.128,0,0,1,2.826,0" transform="translate(14.21 9.134)" fill="#193061"/>
          <path id="패스_17785" data-name="패스 17785" d="M78.724,66.684c-3.978,2.295-5.977,5.3-6.016,8.3l10.169-.223c.131-1.435,1.13-2.847,3.024-3.939a14.753,14.753,0,0,1,6.776-1.745l.416-5.872a29.58,29.58,0,0,0-14.369,3.474" transform="translate(12.904 11.219)" fill="#f1f2f2"/>
        </g>
      </g>
      <g id="그룹_3515" data-name="그룹 3515" transform="translate(107.443 39.149)">
        <g id="그룹_3514" data-name="그룹 3514" clip-path="url(#clip-path-59)">
          <rect id="사각형_7079" data-name="사각형 7079" width="21.215" height="19.882" transform="translate(0 0)" fill="url(#linear-gradient-29)"/>
        </g>
      </g>
      <g id="그룹_3517" data-name="그룹 3517" transform="translate(0 -35.324)">
        <g id="그룹_3516" data-name="그룹 3516" transform="translate(0 0)" clip-path="url(#clip-path-5)">
          <path id="패스_17787" data-name="패스 17787" d="M85.889,77.388a5.686,5.686,0,0,1-2.946-3.451l-10.17.223c.392,2.686,2.377,5.316,5.939,7.372,7.745,4.471,20.13,4.623,28.184.452l-7.124-4.192c-4.068,1.923-10.091,1.784-13.884-.4" transform="translate(12.916 13.122)" fill="#c9faff"/>
          <path id="패스_17788" data-name="패스 17788" d="M131.335,75.016,93.022,97.136l-1.8-1.039,38.313-22.12Z" transform="translate(16.19 13.129)" fill="#f1f2f2"/>
          <path id="패스_17789" data-name="패스 17789" d="M119.442,83.765,95.813,97.479l-1.8-1.037,23.631-13.715Z" transform="translate(16.685 14.682)" fill="#f1f2f2"/>
          <path id="패스_17790" data-name="패스 17790" d="M139.706,79.849l-38.314,22.12-1.8-1.04,38.313-22.12Z" transform="translate(17.676 13.987)" fill="#f1f2f2"/>
          <path id="패스_17791" data-name="패스 17791" d="M142.5,81.459l-38.313,22.12-1.8-1.039L140.7,80.421Z" transform="translate(18.171 14.273)" fill="#f1f2f2"/>
          <path id="패스_17792" data-name="패스 17792" d="M145.286,83.071l-38.313,22.12-1.8-1.039,38.313-22.121Z" transform="translate(18.666 14.559)" fill="#f1f2f2"/>
          <path id="패스_17793" data-name="패스 17793" d="M131.993,92.463l-22.23,12.957-1.8-1.039,22.23-12.957Z" transform="translate(19.161 16.226)" fill="#f1f2f2"/>
        </g>
      </g>
    </g>
  </g>
</svg>
