<svg xmlns="http://www.w3.org/2000/svg" width="104.5" height="17.006" viewBox="0 0 104.5 17.006">
  <g id="logo" transform="translate(-129 -11)">
    <path id="패스_17509" data-name="패스 17509" d="M14.562-1.422V-2.808H2.376v-1.35H16.2V-.072H4.014V1.386H16.542v1.35H2.376V-1.422ZM1.53-5.688v-7.848H3.168v2.664h4.14v-2.664H8.946v7.848ZM14.616-13.77H16.2v8.712H14.616v-4.05H12.258v3.87H10.674v-8.406h1.584v3.15h2.358ZM3.168-9.468v2.43h4.14v-2.43ZM19.206-4.716V-9.81H31.14v-2.322H19.17v-1.4H32.814v5.13H20.844v2.34H33.156v1.35Zm-1.26,3.2V-2.9H34.02v1.386H30.276V3.006H28.638V-1.512H23.346V3.006H21.708V-1.512Zm17.73,3.924V-6.372H42.8v-5.76H35.64v-1.4h8.838v8.568H37.314v6.03H45.36v1.35Zm16-8.1H48.942V2.736H47.3V-13.77h1.638v6.678h2.736ZM55.4-3.078V1.17h12.33V2.556H53.766V-3.078ZM65.754-13.77h1.638V-1.53H65.754Zm-8.5.054a5.473,5.473,0,0,1,1.926.324,4.427,4.427,0,0,1,1.44.936,4.207,4.207,0,0,1,.918,1.422A5.186,5.186,0,0,1,61.866-9.2a4.91,4.91,0,0,1-.324,1.836,4.038,4.038,0,0,1-.918,1.422,4.113,4.113,0,0,1-1.44.918,5.473,5.473,0,0,1-1.926.324,5.334,5.334,0,0,1-1.926-.324,3.956,3.956,0,0,1-1.44-.918,3.764,3.764,0,0,1-.9-1.422A4.91,4.91,0,0,1,52.668-9.2a5.186,5.186,0,0,1,.324-1.836,3.91,3.91,0,0,1,.9-1.422,4.244,4.244,0,0,1,1.44-.936A5.334,5.334,0,0,1,57.258-13.716Zm0,1.386a2.953,2.953,0,0,0-2.124.792,3.122,3.122,0,0,0-.828,2.34,3.025,3.025,0,0,0,.828,2.322,2.879,2.879,0,0,0,2.124.792,2.992,2.992,0,0,0,2.142-.81,3.078,3.078,0,0,0,.828-2.3,3.194,3.194,0,0,0-.828-2.34A3.057,3.057,0,0,0,57.258-12.33Z" transform="translate(127.47 25)" fill="#fff"/>
    <g id="그룹_3949" data-name="그룹 3949">
      <rect id="사각형_7224" data-name="사각형 7224" width="7.5" height="10" transform="translate(199 18)" fill="#4a6bf2"/>
      <rect id="사각형_7223" data-name="사각형 7223" width="7" height="17" transform="translate(208 11)" fill="#6a80e6"/>
      <rect id="사각형_7221" data-name="사각형 7221" width="7.5" height="7" transform="translate(217 21)" fill="#adbdff"/>
      <rect id="사각형_7222" data-name="사각형 7222" width="7.5" height="4" transform="translate(226 24)" fill="#3655d6"/>
    </g>
  </g>
</svg>
