<svg xmlns="http://www.w3.org/2000/svg" width="67.666" height="19.779" viewBox="0 0 67.666 19.779">
  <g id="그룹_3026" data-name="그룹 3026" transform="translate(-283.58 -1261)">
    <path id="패스_25" data-name="패스 25" d="M10.41,15.927l6.454,3.852L15.2,12.492l5.621-5-7.5-.625L10.41,0,7.5,6.871,0,7.5l5.726,5L4.06,19.779Z" transform="translate(283.58 1261)" fill="#ff3178"/>
    <path id="패스_26" data-name="패스 26" d="M10.41,15.927l6.454,3.852L15.2,12.492l5.621-5-7.5-.625L10.41,0,7.5,6.871,0,7.5l5.726,5L4.06,19.779Z" transform="translate(306.135 1261)" fill="#bdc8d8"/>
    <path id="패스_27" data-name="패스 27" d="M10.41,15.927l6.454,3.852L15.2,12.492l5.621-5-7.5-.625L10.41,0,7.5,6.871,0,7.5l5.726,5L4.06,19.779Z" transform="translate(330.426 1261)" fill="#bdc8d8"/>
    <g id="그룹_3025" data-name="그룹 3025">
      <path id="패스_17511" data-name="패스 17511" d="M10.41,15.927l6.44,3.852-6.44-3.852V0L7.5,6.871,0,7.5l5.726,5L4.06,19.779Z" transform="translate(330.424 1261)" fill="#ff3178"/>
    </g>
  </g>
</svg>
