<svg xmlns="http://www.w3.org/2000/svg" width="36" height="14" viewBox="0 0 36 14">
  <g id="그룹_3024" data-name="그룹 3024" transform="translate(-394 -300)">
    <path id="checkbox_circle_fill" data-name="checkbox circle fill" d="M7,14a6.854,6.854,0,0,1-3.528-.952,7.087,7.087,0,0,1-2.52-2.52A6.854,6.854,0,0,1,0,7,6.854,6.854,0,0,1,.952,3.472,7.086,7.086,0,0,1,3.472.952,6.854,6.854,0,0,1,7,0a6.854,6.854,0,0,1,3.528.952,7.087,7.087,0,0,1,2.52,2.52A6.854,6.854,0,0,1,14,7a6.854,6.854,0,0,1-.952,3.528,7.087,7.087,0,0,1-2.52,2.52A6.854,6.854,0,0,1,7,14ZM6.3,9.8l4.956-4.956-.994-.98L6.3,7.826,4.326,5.838l-.994.994Z" transform="translate(394 300)" fill="#3655d6"/>
    <path id="checkbox_circle_line" data-name="checkbox circle line" d="M7,14a6.854,6.854,0,0,1-3.528-.952,7.087,7.087,0,0,1-2.52-2.52A6.854,6.854,0,0,1,0,7,6.854,6.854,0,0,1,.952,3.472,7.086,7.086,0,0,1,3.472.952,6.854,6.854,0,0,1,7,0a6.854,6.854,0,0,1,3.528.952,7.087,7.087,0,0,1,2.52,2.52A6.854,6.854,0,0,1,14,7a6.854,6.854,0,0,1-.952,3.528,7.087,7.087,0,0,1-2.52,2.52A6.854,6.854,0,0,1,7,14Zm0-1.4a5.457,5.457,0,0,0,2.828-.77,5.563,5.563,0,0,0,2-2,5.578,5.578,0,0,0,0-5.656,5.563,5.563,0,0,0-2-2,5.578,5.578,0,0,0-5.656,0,5.563,5.563,0,0,0-2,2,5.578,5.578,0,0,0,0,5.656,5.563,5.563,0,0,0,2,2A5.457,5.457,0,0,0,7,12.6ZM6.3,9.8,3.332,6.832l.994-.994L6.3,7.826l3.962-3.962.994.98Z" transform="translate(416 300)" fill="#b1b9cb"/>
  </g>
</svg>
