<svg xmlns="http://www.w3.org/2000/svg" width="16" height="16" viewBox="0 0 16 16">
  <g id="그룹_3231" data-name="그룹 3231" transform="translate(-533 -304)">
    <rect id="사각형_1522" data-name="사각형 1522" width="16" height="16" rx="8" transform="translate(533 304)" fill="#3655d6"/>
    <path id="lock_2_fill" data-name="lock 2 fill" d="M5.865,2.737h.782a.387.387,0,0,1,.391.391V7.82a.387.387,0,0,1-.391.391H.391A.378.378,0,0,1,.113,8.1.378.378,0,0,1,0,7.82V3.128A.378.378,0,0,1,.113,2.85a.378.378,0,0,1,.278-.113h.782V2.346a2.3,2.3,0,0,1,.321-1.181A2.342,2.342,0,0,1,2.338.321,2.335,2.335,0,0,1,4.7.321a2.342,2.342,0,0,1,.845.845,2.3,2.3,0,0,1,.321,1.181ZM3.128,5.763v.884H3.91V5.763a.767.767,0,0,0,.328-.379.779.779,0,0,0,.035-.5A.744.744,0,0,0,4,4.461a.79.79,0,0,0-.954,0,.744.744,0,0,0-.278.418.779.779,0,0,0,.035.5A.767.767,0,0,0,3.128,5.763ZM5.083,2.737V2.346a1.518,1.518,0,0,0-.211-.782A1.577,1.577,0,0,0,4.3.993a1.554,1.554,0,0,0-1.564,0,1.577,1.577,0,0,0-.571.571,1.518,1.518,0,0,0-.211.782v.391Z" transform="translate(537.481 307.446)" fill="#fff"/>
  </g>
</svg>
