<svg xmlns="http://www.w3.org/2000/svg" width="15.353" height="13.637" viewBox="0 0 15.353 13.637">
  <path id="shop" d="M4.363,4.463,5.045,0H1.532L.067,3.83a1.265,1.265,0,0,0-.05.208A1.452,1.452,0,0,0,.641,5.462a2.456,2.456,0,0,0,1.557.5,2.455,2.455,0,0,0,1.449-.433A1.591,1.591,0,0,0,4.363,4.463Zm3.314,1.5a2.456,2.456,0,0,0,1.557-.5,1.481,1.481,0,0,0,.641-1.2A.184.184,0,0,0,9.866,4.2a.185.185,0,0,1-.008-.058L9.425,0h-3.5L5.495,4.146a.134.134,0,0,0-.017.058v.058a1.481,1.481,0,0,0,.641,1.2A2.456,2.456,0,0,0,7.676,5.961Zm4.263.9v3.364H3.414V6.86a4.017,4.017,0,0,1-.591.158,3.352,3.352,0,0,1-.624.058,1.768,1.768,0,0,1-.25-.017l-.233-.033v5.412a1.156,1.156,0,0,0,.35.849,1.137,1.137,0,0,0,.833.35h9.558a1.137,1.137,0,0,0,.833-.35,1.156,1.156,0,0,0,.35-.849V7.027L13.4,7.06a1.768,1.768,0,0,1-.25.017,3.352,3.352,0,0,1-.624-.058A4.017,4.017,0,0,1,11.939,6.86ZM15.286,3.83,13.821,0H10.307l.666,4.463A1.585,1.585,0,0,0,11.7,5.528a2.493,2.493,0,0,0,1.457.433,2.456,2.456,0,0,0,1.557-.5,1.452,1.452,0,0,0,.624-1.424A1.265,1.265,0,0,0,15.286,3.83Z" fill="#45a528" opacity="0.5"/>
</svg>
