<svg xmlns="http://www.w3.org/2000/svg" width="14" height="14" viewBox="0 0 14 14">
  <g id="그룹_3223" data-name="그룹 3223" transform="translate(-726 -285)">
    <rect id="사각형_6797" data-name="사각형 6797" width="14" height="14" transform="translate(726 285)" fill="red" opacity="0"/>
    <path id="file_text_fill" data-name="file text fill" d="M10,3.89V10.56a.542.542,0,0,1-.161.389.528.528,0,0,1-.395.167H.556a.537.537,0,0,1-.395-.161A.537.537,0,0,1,0,10.56v-10A.537.537,0,0,1,.161.161.537.537,0,0,1,.556,0H6.113V3.335a.55.55,0,0,0,.556.556Zm0-1.112H7.225V0Zm-7.225,0V3.89H4.446V2.779ZM2.779,5V6.113H7.225V5Zm0,2.223V8.337H7.225V7.225Z" transform="translate(728.373 286.442)" fill="#97a3c9"/>
  </g>
</svg>
